<svg xmlns="http://www.w3.org/2000/svg" viewBox="0 0 48 56" fill="none" role="img" aria-label="Root System logo">
  <!-- Stem -->
  <path d="M24 30 L24 11" stroke="#2D5016" stroke-width="2.2" stroke-linecap="round"/>
  <!-- Left leaf -->
  <path d="M24 22 C15 17 10 23 15 28 C18 30 22 27 24 22Z" fill="#4A7C2E"/>
  <!-- Right leaf -->
  <path d="M24 16 C33 11 38 17 33 22 C30 24 26 21 24 16Z" fill="#2D5016"/>
  <!-- Tiny sprout tip -->
  <circle cx="24" cy="10" r="1.8" fill="#6B9B4A" opacity="0.7"/>
  <!-- Roots: main -->
  <path d="M24 30 L24 47" stroke="#6B4226" stroke-width="1.8" stroke-linecap="round"/>
  <!-- Roots: left branch -->
  <path d="M24 37 L13 47" stroke="#6B4226" stroke-width="1.4" stroke-linecap="round"/>
  <!-- Roots: right branch -->
  <path d="M24 37 L35 47" stroke="#6B4226" stroke-width="1.4" stroke-linecap="round"/>
  <!-- Root tips -->
  <path d="M24 47 L20 53" stroke="#8B6914" stroke-width="1.1" stroke-linecap="round"/>
  <path d="M24 47 L28 53" stroke="#8B6914" stroke-width="1.1" stroke-linecap="round"/>
  <path d="M13 47 L9 53"  stroke="#8B6914" stroke-width="1.1" stroke-linecap="round"/>
  <path d="M13 47 L15 54" stroke="#8B6914" stroke-width="1.1" stroke-linecap="round"/>
  <path d="M35 47 L39 53" stroke="#8B6914" stroke-width="1.1" stroke-linecap="round"/>
  <path d="M35 47 L33 54" stroke="#8B6914" stroke-width="1.1" stroke-linecap="round"/>
</svg>
